<?xml version="1.0" standalone="no"?>
   <!DOCTYPE svg PUBLIC "-//W3C//DTD SVG 1.1//EN" 
   "http://www.w3.org/Graphics/SVG/1.1/DTD/svg11.dtd"><svg id="svg" version="1.1" width="1662" height="1734" xmlns="http://www.w3.org/2000/svg"><path d="M748.500 147.054 C 703.192 149.822,698.268 151.411,681.021 168.841 C 663.683 186.361,661.332 194.566,665.788 222.000 C 669.803 246.720,669.928 296.411,666.004 307.802 C 664.356 312.586,660.517 328.650,657.474 343.500 L 651.939 370.500 623.720 378.428 C 598.821 385.423,589.753 386.393,546.662 386.671 C 475.146 387.133,430.962 397.804,408.750 419.978 C 401.199 427.517,399.000 432.260,399.000 441.011 C 399.000 459.912,416.445 473.876,462.817 492.095 C 483.910 500.382,513.906 510.227,529.475 513.973 C 545.045 517.719,558.639 521.639,559.685 522.685 C 560.730 523.730,560.153 531.270,558.401 539.438 C 556.407 548.737,556.223 557.805,557.910 563.688 C 560.463 572.589,560.023 573.336,549.553 577.865 C 543.474 580.495,522.975 587.865,504.000 594.242 C 390.291 632.460,365.058 642.845,298.500 678.812 C 251.396 704.268,228.159 722.851,194.367 762.089 C 186.594 771.115,175.510 783.580,169.735 789.789 C 155.287 805.322,141.742 825.498,139.342 835.061 C 138.030 840.287,139.031 845.626,142.238 850.522 C 148.332 859.821,160.282 860.340,181.442 852.225 C 211.709 840.618,257.193 828.105,285.000 823.736 C 388.988 807.400,414.411 805.380,468.979 809.116 L 515.310 812.288 525.405 822.065 C 530.957 827.443,542.250 836.238,550.500 841.611 C 558.750 846.983,569.430 855.532,574.234 860.609 C 579.038 865.686,589.755 872.093,598.048 874.848 C 634.882 887.082,675.006 915.408,674.996 929.170 C 674.988 940.685,649.722 959.678,624.000 967.505 C 619.875 968.760,612.902 972.320,608.505 975.416 C 597.407 983.230,561.642 997.949,529.500 1007.931 C 470.867 1026.139,462.769 1028.533,442.500 1033.644 C 411.337 1041.503,391.705 1051.642,378.415 1066.740 C 357.155 1090.893,355.856 1096.082,358.092 1147.933 C 359.924 1190.422,359.600 1194.828,353.454 1211.055 C 348.194 1224.944,346.710 1235.839,346.172 1264.500 C 345.801 1284.300,343.938 1319.400,342.032 1342.500 C 340.125 1365.600,337.867 1396.714,337.014 1411.642 L 335.462 1438.784 354.481 1461.581 C 364.942 1474.119,376.875 1486.178,381.000 1488.378 C 385.125 1490.578,392.778 1495.520,398.007 1499.359 C 403.235 1503.199,418.085 1510.118,431.007 1514.735 C 443.928 1519.352,462.971 1527.276,473.324 1532.343 C 512.666 1551.599,534.920 1556.907,589.723 1560.104 C 683.680 1565.585,707.669 1568.823,754.086 1582.288 C 784.560 1591.128,801.273 1591.792,836.652 1585.565 C 859.102 1581.615,864.735 1581.645,889.097 1585.849 C 927.392 1592.458,945.125 1588.655,944.905 1573.883 C 944.717 1561.346,938.125 1557.005,919.169 1556.934 C 908.098 1556.893,896.617 1554.652,888.422 1550.934 C 878.150 1546.273,868.819 1544.999,844.922 1544.997 C 810.603 1544.993,816.779 1548.397,781.652 1510.115 C 767.350 1494.527,762.144 1490.989,747.445 1486.865 C 737.909 1484.189,725.470 1481.992,719.803 1481.983 C 700.057 1481.951,685.973 1475.891,672.000 1461.415 C 658.817 1447.757,654.895 1439.929,648.042 1413.592 C 642.985 1394.156,615.811 1368.176,593.088 1361.051 C 583.529 1358.054,564.475 1349.725,550.744 1342.543 C 537.014 1335.361,519.656 1328.566,512.171 1327.444 C 487.683 1323.772,472.519 1337.508,485.121 1351.948 C 493.003 1360.980,508.245 1368.000,519.974 1368.000 C 532.091 1368.000,554.147 1375.298,561.130 1381.618 C 565.801 1385.845,573.687 1400.679,587.384 1431.000 C 590.738 1438.425,599.782 1450.575,607.482 1458.000 C 630.891 1480.574,635.854 1496.026,622.505 1504.772 C 611.398 1512.050,592.867 1508.097,562.168 1491.901 L 536.064 1478.128 500.093 1480.062 L 464.122 1481.997 442.811 1471.801 C 431.090 1466.193,411.928 1458.776,400.229 1455.318 C 388.530 1451.860,376.639 1446.469,373.805 1443.337 C 369.184 1438.231,369.092 1436.587,372.916 1427.434 C 375.262 1421.820,380.932 1414.769,385.516 1411.766 C 392.793 1406.997,395.397 1406.768,406.055 1409.962 C 413.440 1412.174,443.184 1413.985,481.380 1414.547 C 547.511 1415.521,558.000 1413.808,558.000 1402.036 C 558.000 1398.156,555.701 1397.518,546.277 1398.782 C 539.830 1399.647,533.417 1399.250,532.027 1397.900 C 530.637 1396.550,518.475 1389.889,504.999 1383.099 C 481.987 1371.502,479.344 1369.132,461.499 1344.087 C 448.566 1325.935,436.274 1312.788,423.000 1302.907 C 404.779 1289.345,389.144 1268.856,393.609 1264.391 C 394.689 1263.311,403.806 1269.277,413.868 1277.651 C 437.363 1297.204,438.967 1297.989,463.714 1302.043 C 475.146 1303.916,496.396 1308.847,510.935 1313.001 L 537.369 1320.553 549.185 1312.734 C 570.077 1298.908,562.944 1278.000,537.334 1278.000 C 526.141 1278.000,522.678 1276.144,508.032 1262.292 C 490.891 1246.081,479.110 1228.547,475.825 1214.361 C 474.789 1209.884,469.394 1198.409,463.837 1188.861 C 457.415 1177.825,453.152 1165.912,452.138 1156.163 C 451.261 1147.727,447.721 1135.293,444.271 1128.532 C 440.822 1121.771,438.000 1115.565,438.000 1114.741 C 438.000 1113.917,441.699 1109.813,446.219 1105.621 C 452.011 1100.251,457.791 1098.000,465.788 1098.000 C 485.208 1098.000,518.077 1114.244,545.951 1137.617 C 573.911 1161.061,587.849 1168.410,610.500 1171.650 C 631.966 1174.720,650.075 1184.832,674.888 1207.603 C 694.914 1225.980,732.333 1248.000,743.537 1248.000 C 752.012 1248.000,796.827 1272.659,807.910 1283.421 C 814.185 1289.514,825.346 1304.940,832.712 1317.700 C 850.819 1349.070,868.933 1358.089,876.079 1339.293 C 879.402 1330.552,876.001 1318.678,865.922 1303.831 C 861.565 1297.414,857.970 1288.639,857.934 1284.331 C 857.829 1271.816,847.709 1252.870,833.539 1238.659 C 815.664 1220.732,808.370 1209.887,801.078 1190.398 C 797.670 1181.289,788.207 1165.519,780.049 1155.354 C 769.622 1142.362,763.421 1130.846,759.176 1116.590 C 752.397 1093.830,742.172 1081.926,720.000 1070.985 C 702.697 1062.446,693.000 1053.503,693.000 1046.085 C 693.000 1041.000,694.473 1040.454,704.007 1042.001 C 710.061 1042.984,715.799 1044.916,716.757 1046.296 C 719.787 1050.659,748.066 1064.139,759.000 1066.432 C 764.775 1067.644,776.925 1072.877,786.000 1078.062 C 802.141 1087.283,803.544 1087.524,850.500 1089.119 C 877.528 1090.038,902.190 1092.334,906.945 1094.375 C 918.561 1099.361,960.836 1098.985,973.280 1093.785 C 984.830 1088.959,1022.062 1064.198,1048.500 1043.760 C 1058.400 1036.106,1069.200 1028.470,1072.500 1026.790 C 1080.638 1022.646,1128.422 1011.885,1150.131 1009.307 C 1172.951 1006.597,1172.003 1011.741,1147.349 1024.402 C 1134.277 1031.114,1125.194 1038.995,1112.706 1054.455 C 1095.705 1075.504,1091.157 1079.118,1063.500 1093.562 C 1038.278 1106.734,1011.000 1137.674,1011.000 1153.110 C 1011.000 1155.502,1006.950 1169.852,1002.000 1185.000 C 994.159 1208.994,993.007 1216.852,993.054 1246.021 C 993.105 1277.495,993.644 1280.472,1002.054 1295.729 C 1008.744 1307.866,1011.000 1315.880,1011.000 1327.510 C 1011.000 1354.723,993.426 1395.386,975.882 1408.768 C 969.448 1413.676,966.000 1418.869,966.000 1423.653 C 966.000 1427.694,967.027 1431.000,968.282 1431.000 C 969.538 1431.000,982.450 1421.435,996.977 1409.744 C 1023.739 1388.207,1048.531 1358.724,1051.953 1344.367 C 1052.984 1340.040,1054.890 1335.134,1056.189 1333.464 C 1057.488 1331.794,1061.452 1322.670,1064.999 1313.190 C 1080.336 1272.199,1090.169 1260.663,1136.500 1229.299 C 1180.162 1199.743,1196.734 1181.904,1216.589 1143.087 C 1225.518 1125.630,1237.251 1107.217,1242.662 1102.169 C 1253.686 1091.884,1280.594 1080.000,1292.856 1080.000 C 1305.966 1080.000,1329.887 1088.345,1338.697 1095.992 C 1347.912 1103.991,1358.834 1125.874,1358.934 1136.538 C 1358.970 1140.409,1361.178 1151.070,1363.841 1160.228 C 1370.706 1183.842,1368.170 1199.138,1353.934 1219.980 C 1336.940 1244.861,1317.047 1254.413,1276.500 1257.162 C 1260.000 1258.281,1241.775 1260.934,1236.000 1263.058 C 1220.253 1268.849,1197.045 1285.039,1183.054 1299.992 C 1166.165 1318.042,1149.021 1329.153,1120.500 1340.534 C 1094.847 1350.770,1087.169 1356.313,1035.820 1401.664 C 1003.566 1430.151,991.789 1445.989,998.138 1452.338 C 1000.144 1454.344,1008.601 1447.956,1023.581 1433.121 C 1052.170 1404.809,1089.000 1386.017,1089.000 1399.741 C 1089.000 1402.503,1083.889 1406.490,1076.761 1409.290 C 1066.327 1413.389,1063.045 1417.032,1054.501 1433.998 C 1048.326 1446.260,1040.636 1456.531,1034.467 1460.759 C 1018.097 1471.976,1002.236 1499.721,996.593 1527.010 C 992.617 1546.240,992.396 1551.596,995.455 1554.655 C 1000.658 1559.858,1003.237 1555.367,1012.796 1524.460 C 1021.379 1496.708,1032.327 1482.000,1056.539 1465.695 C 1064.307 1460.464,1075.126 1449.505,1080.581 1441.342 C 1090.603 1426.345,1097.470 1421.820,1134.131 1406.052 C 1143.279 1402.117,1159.219 1392.674,1169.553 1385.066 C 1179.888 1377.458,1198.054 1366.295,1209.922 1360.259 C 1221.790 1354.224,1235.083 1346.746,1239.463 1343.643 C 1243.843 1340.539,1248.387 1338.000,1249.561 1338.000 C 1252.356 1338.000,1312.983 1294.573,1317.000 1289.693 C 1317.825 1288.691,1329.300 1282.063,1342.500 1274.963 C 1355.700 1267.864,1370.550 1259.093,1375.500 1255.473 C 1389.714 1245.075,1403.496 1238.757,1405.365 1241.781 C 1407.618 1245.427,1386.314 1262.594,1362.000 1276.725 C 1341.857 1288.432,1289.979 1323.907,1251.533 1352.266 C 1236.307 1363.497,1225.919 1374.152,1217.684 1386.985 C 1202.959 1409.930,1182.213 1429.497,1167.593 1434.229 C 1149.295 1440.151,1129.201 1451.224,1118.542 1461.258 C 1113.019 1466.457,1099.050 1475.241,1087.500 1480.777 C 1075.950 1486.313,1059.882 1496.953,1051.793 1504.421 C 1043.703 1511.890,1035.941 1518.000,1034.543 1518.000 C 1030.139 1518.000,1031.788 1533.107,1036.383 1534.870 C 1040.969 1536.630,1086.121 1522.579,1096.500 1516.163 C 1103.588 1511.781,1154.209 1507.393,1163.533 1510.352 C 1178.826 1515.206,1166.589 1521.555,1140.000 1522.563 C 1124.509 1523.150,1101.000 1531.435,1101.000 1536.308 C 1101.000 1539.119,1078.797 1547.083,1064.513 1549.395 C 1055.823 1550.801,1052.891 1552.997,1050.484 1559.902 C 1044.731 1576.404,1057.394 1579.535,1101.967 1572.634 C 1114.874 1570.635,1132.131 1569.000,1140.317 1569.000 C 1157.368 1569.000,1174.593 1561.224,1200.000 1542.055 C 1209.075 1535.208,1220.142 1528.865,1224.594 1527.959 C 1229.045 1527.053,1236.470 1522.136,1241.094 1517.030 C 1245.717 1511.925,1258.506 1498.917,1269.514 1488.124 C 1293.583 1464.523,1296.977 1455.564,1285.321 1446.395 C 1275.076 1438.336,1273.331 1438.396,1264.623 1447.104 L 1257.519 1454.208 1255.550 1443.713 C 1253.255 1431.476,1254.463 1429.966,1270.500 1425.035 C 1277.100 1423.006,1286.971 1416.602,1292.435 1410.804 L 1302.371 1400.261 1323.304 1402.324 C 1344.174 1404.380,1365.000 1400.606,1365.000 1394.767 C 1365.000 1393.245,1366.846 1392.000,1369.101 1392.000 C 1376.041 1392.000,1389.244 1368.435,1392.085 1350.980 C 1395.984 1327.021,1397.725 1323.000,1404.202 1323.000 C 1408.927 1323.000,1410.000 1325.134,1410.000 1334.535 C 1410.000 1356.060,1428.661 1362.916,1441.199 1345.998 C 1446.845 1338.380,1447.407 1334.126,1446.604 1305.085 C 1445.739 1273.774,1445.974 1272.382,1453.521 1264.087 L 1461.334 1255.500 1460.128 1267.500 C 1459.414 1274.595,1461.278 1286.245,1464.686 1296.000 C 1477.069 1331.439,1477.506 1335.994,1470.009 1351.482 C 1456.327 1379.744,1431.856 1397.491,1399.975 1402.272 C 1379.779 1405.301,1348.347 1417.261,1336.165 1426.552 C 1330.450 1430.912,1322.238 1440.078,1317.918 1446.922 C 1313.597 1453.767,1308.248 1461.180,1306.031 1463.397 C 1303.814 1465.615,1302.000 1468.367,1302.000 1469.513 C 1302.000 1470.660,1295.250 1478.979,1287.000 1488.000 C 1270.755 1505.764,1269.032 1511.384,1277.486 1519.035 C 1288.869 1529.336,1305.683 1522.311,1315.499 1503.154 C 1319.347 1495.644,1328.623 1483.541,1336.112 1476.258 C 1348.277 1464.428,1351.541 1462.866,1366.710 1461.608 C 1376.049 1460.833,1390.688 1461.766,1399.241 1463.680 C 1418.710 1468.037,1436.432 1462.637,1452.000 1447.604 C 1460.005 1439.875,1466.697 1436.703,1480.162 1434.259 C 1499.126 1430.815,1502.996 1428.725,1515.750 1415.039 C 1526.369 1403.645,1526.585 1388.887,1516.550 1360.500 C 1512.467 1348.950,1509.098 1336.234,1509.063 1332.243 C 1509.028 1328.251,1505.152 1318.126,1500.448 1309.743 C 1487.778 1287.161,1482.742 1267.957,1480.716 1234.500 C 1477.889 1187.820,1476.579 1179.029,1469.001 1155.908 C 1459.793 1127.815,1443.886 1101.650,1432.500 1095.870 C 1427.550 1093.358,1416.750 1086.273,1408.500 1080.126 C 1399.677 1073.552,1386.705 1067.324,1377.000 1065.000 C 1367.925 1062.827,1350.648 1055.864,1338.607 1049.525 C 1326.567 1043.186,1314.636 1038.000,1312.095 1038.000 C 1309.554 1038.000,1299.156 1033.429,1288.987 1027.842 C 1278.819 1022.254,1261.469 1014.746,1250.430 1011.157 C 1230.364 1004.632,1218.451 996.864,1197.904 976.907 C 1191.891 971.066,1178.870 961.970,1168.968 956.692 C 1159.066 951.415,1143.110 939.875,1133.509 931.048 C 1123.908 922.222,1114.112 915.000,1111.740 915.000 C 1109.369 915.000,1105.277 912.849,1102.648 910.220 C 1095.923 903.495,1099.288 880.136,1110.818 853.500 C 1130.861 807.200,1131.114 793.290,1112.574 757.037 C 1101.689 735.752,1101.162 733.529,1104.252 721.907 C 1106.066 715.083,1111.428 702.075,1116.168 693.000 C 1120.908 683.925,1128.824 666.375,1133.759 654.000 L 1142.731 631.500 1164.615 632.163 C 1176.652 632.527,1194.600 634.158,1204.500 635.786 C 1233.243 640.513,1333.567 642.682,1363.529 639.224 C 1402.345 634.744,1421.528 628.339,1433.202 615.962 C 1454.171 593.728,1442.552 573.735,1392.000 545.068 C 1376.325 536.179,1353.375 525.081,1341.000 520.407 C 1328.625 515.733,1311.075 507.432,1302.000 501.962 C 1292.925 496.491,1283.234 492.012,1280.464 492.008 C 1277.695 492.003,1273.556 490.128,1271.268 487.839 C 1266.336 482.907,1226.176 468.000,1217.821 468.000 C 1209.613 468.000,1210.631 462.890,1222.577 444.139 C 1228.310 435.140,1233.000 425.515,1233.000 422.749 C 1233.000 417.934,1261.644 382.513,1288.596 354.000 C 1300.043 341.890,1301.510 338.647,1302.840 322.500 C 1305.026 295.949,1299.946 287.412,1270.709 268.502 C 1257.394 259.890,1242.499 251.881,1237.609 250.704 C 1228.682 248.555,1215.085 242.502,1159.500 215.933 C 1141.396 207.280,1122.957 200.747,1113.000 199.458 C 1103.925 198.284,1084.350 193.397,1069.500 188.599 C 1033.297 176.900,1024.866 174.713,1002.000 171.094 C 991.275 169.397,973.050 165.949,961.500 163.433 C 949.950 160.917,920.250 156.912,895.500 154.534 C 870.750 152.155,841.050 148.856,829.500 147.203 C 806.917 143.970,799.207 143.956,748.500 147.054 M975.750 177.321 C 983.588 179.124,990.000 181.826,990.000 183.325 C 990.000 186.231,965.046 184.426,941.102 179.789 C 933.184 178.255,921.371 177.000,914.852 177.000 C 908.334 177.000,903.000 175.728,903.000 174.172 C 903.000 167.789,941.556 169.458,975.750 177.321 M877.500 178.769 C 905.582 184.212,925.309 187.232,970.500 193.010 C 991.601 195.707,1019.185 202.211,1047.000 211.047 C 1070.925 218.647,1093.200 224.776,1096.500 224.668 C 1104.766 224.397,1134.200 233.000,1137.996 236.796 C 1139.703 238.503,1140.192 240.808,1139.082 241.918 C 1136.791 244.209,1043.016 221.513,1017.365 212.459 C 998.060 205.644,974.338 201.632,931.500 197.937 C 915.000 196.514,894.750 194.060,886.500 192.485 C 878.250 190.910,829.317 189.144,777.759 188.560 C 725.813 187.973,684.015 186.310,684.009 184.831 C 684.004 183.363,686.363 180.368,689.250 178.176 C 697.320 172.050,845.233 172.516,877.500 178.769 M1060.500 198.226 C 1081.950 204.542,1105.575 210.559,1113.000 211.598 C 1129.360 213.887,1143.000 218.782,1143.000 222.364 C 1143.000 223.814,1141.561 225.000,1139.802 225.000 C 1133.169 225.000,1080.456 212.084,1054.500 204.099 C 1039.650 199.531,1021.053 194.079,1013.173 191.985 C 1005.293 189.891,998.034 186.865,997.043 185.261 C 994.261 180.759,1016.863 185.377,1060.500 198.226 M1180.500 245.667 C 1216.977 257.057,1282.638 289.470,1289.238 299.344 C 1291.754 303.108,1293.187 306.813,1292.423 307.577 C 1291.188 308.812,1277.091 302.040,1249.500 286.957 C 1244.550 284.251,1238.563 282.029,1236.195 282.018 C 1233.827 282.008,1223.027 277.437,1212.195 271.860 C 1201.363 266.283,1188.395 260.838,1183.379 259.760 C 1172.243 257.366,1155.000 247.210,1155.000 243.044 C 1155.000 238.742,1159.956 239.251,1180.500 245.667 M1048.500 260.837 C 1085.053 271.275,1094.770 271.068,1108.141 259.564 C 1119.476 249.813,1123.134 252.614,1117.083 266.410 C 1106.742 289.990,1103.285 302.178,1101.739 320.510 C 1100.700 332.845,1098.663 340.085,1095.940 341.130 C 1091.864 342.694,1084.066 340.712,1033.287 325.203 C 1000.480 315.183,963.580 308.533,909.000 302.803 C 891.675 300.984,863.622 297.584,846.659 295.248 C 829.697 292.912,807.759 291.000,797.909 291.000 C 788.059 291.000,780.000 289.810,780.000 288.356 C 780.000 283.000,809.181 278.649,863.075 275.971 C 917.277 273.278,918.707 273.036,934.819 263.818 C 943.860 258.645,954.912 253.223,959.379 251.770 C 974.224 246.941,1014.015 250.989,1048.500 260.837 M1138.187 263.250 C 1137.126 267.788,1133.901 278.925,1131.018 288.000 C 1128.136 297.075,1123.958 310.913,1121.734 318.750 C 1117.706 332.944,1114.151 336.490,1111.326 329.128 C 1109.608 324.651,1125.694 270.612,1131.522 261.278 C 1137.033 252.454,1140.472 253.471,1138.187 263.250 M828.000 306.135 C 837.075 307.592,859.569 309.693,877.987 310.803 C 907.849 312.602,922.071 315.456,917.913 318.815 C 917.136 319.443,905.956 323.733,893.068 328.349 C 874.239 335.093,867.168 336.293,857.068 334.458 C 841.647 331.656,825.355 331.679,805.064 334.533 C 789.966 336.655,789.336 336.433,776.240 324.362 C 768.876 317.574,758.609 311.172,753.425 310.135 C 748.136 309.077,744.000 306.369,744.000 303.964 C 744.000 300.390,749.610 299.994,777.750 301.581 C 796.313 302.628,818.925 304.677,828.000 306.135 M1281.586 317.061 C 1286.214 321.495,1290.000 327.001,1290.000 329.297 C 1290.000 331.592,1279.375 345.177,1266.388 359.485 C 1253.402 373.793,1238.801 390.071,1233.941 395.657 L 1225.104 405.815 1213.302 399.556 C 1206.811 396.114,1199.053 392.565,1196.062 391.671 C 1191.496 390.305,1193.059 387.571,1205.812 374.615 C 1214.165 366.129,1221.000 358.139,1221.000 356.860 C 1221.000 355.582,1227.413 351.514,1235.250 347.822 C 1253.666 339.147,1265.231 328.333,1267.593 317.578 C 1269.914 307.008,1271.049 306.966,1281.586 317.061 M998.247 328.661 C 1016.807 332.541,1036.382 337.775,1041.747 340.293 C 1055.466 346.733,1114.562 366.000,1120.594 366.000 C 1123.347 366.000,1130.190 370.590,1135.800 376.200 C 1154.157 394.557,1146.676 417.000,1122.201 417.000 C 1111.908 417.000,1109.031 415.327,1099.660 403.891 C 1092.649 395.336,1082.881 388.073,1071.533 382.981 C 1060.516 378.036,1050.591 370.753,1044.438 363.096 C 1032.619 348.389,1020.297 341.535,1000.500 338.655 C 983.261 336.147,953.043 328.617,948.194 325.620 C 942.242 321.942,948.444 317.459,956.577 319.560 C 960.935 320.685,979.686 324.781,998.247 328.661 M901.151 391.422 C 949.612 399.779,994.161 410.989,1030.500 423.969 C 1061.098 434.898,1081.832 441.000,1088.373 441.000 C 1091.534 441.000,1103.424 444.375,1114.797 448.500 C 1138.726 457.180,1147.635 457.883,1150.164 451.293 C 1151.337 448.238,1154.004 447.232,1157.765 448.425 C 1168.534 451.843,1182.970 442.717,1192.500 426.466 C 1202.178 409.962,1204.684 408.645,1213.677 415.328 C 1219.375 419.562,1219.314 419.996,1210.815 435.578 C 1197.549 459.900,1195.380 461.607,1176.411 462.656 C 1159.525 463.591,1159.513 463.598,1168.500 467.654 C 1181.720 473.619,1172.446 475.504,1152.350 470.936 C 1131.789 466.262,1107.514 459.849,1087.500 453.804 C 1079.250 451.313,1065.750 447.672,1057.500 445.715 C 1043.459 442.384,1012.708 433.239,970.338 419.796 C 957.122 415.603,936.289 413.215,893.838 411.027 C 861.752 409.373,828.750 406.734,820.500 405.161 C 794.328 400.171,635.737 395.108,625.658 398.940 C 620.798 400.788,590.424 403.585,558.161 405.156 C 525.897 406.727,492.750 409.305,484.500 410.884 C 476.250 412.463,465.450 414.320,460.500 415.010 C 448.349 416.704,431.398 424.030,425.131 430.298 C 418.480 436.948,418.625 444.497,425.557 452.489 C 431.576 459.429,454.409 470.828,462.506 470.934 C 465.259 470.970,477.371 475.725,489.421 481.500 C 501.471 487.275,513.712 492.000,516.622 492.000 C 525.271 492.000,549.000 499.052,549.000 501.622 C 549.000 507.856,514.042 500.187,475.500 485.498 C 428.141 467.449,411.000 455.437,411.000 440.295 C 411.000 415.444,459.875 399.933,547.500 396.975 C 578.865 395.917,607.072 393.281,620.765 390.129 C 640.095 385.680,658.235 385.116,758.415 385.855 C 846.569 386.505,880.256 387.818,901.151 391.422 M1106.143 385.857 C 1104.964 387.036,1104.000 390.566,1104.000 393.702 C 1104.000 398.039,1105.437 398.948,1110.000 397.500 C 1114.679 396.015,1116.000 396.961,1116.000 401.798 C 1116.000 405.209,1117.688 407.979,1119.750 407.954 C 1127.417 407.860,1131.460 402.673,1130.490 394.174 C 1129.630 386.638,1128.109 385.383,1118.893 384.607 C 1113.059 384.116,1107.321 384.679,1106.143 385.857 M654.000 433.398 C 654.000 441.664,643.511 460.488,631.843 473.163 C 625.432 480.128,618.594 488.228,616.647 491.163 C 609.971 501.231,606.000 521.218,605.982 544.848 C 605.964 567.668,605.805 568.198,601.482 559.907 C 599.017 555.181,597.000 546.763,597.000 541.200 C 597.000 535.637,595.432 525.224,593.516 518.060 C 589.645 503.586,587.051 508.291,619.064 471.718 C 626.663 463.038,635.100 451.563,637.814 446.218 C 646.338 429.435,654.000 423.366,654.000 433.398 M749.081 448.931 C 751.831 456.099,738.166 510.125,733.112 512.064 C 730.791 512.955,724.529 511.842,719.196 509.592 C 713.863 507.341,700.050 505.593,688.500 505.706 C 663.695 505.948,642.646 515.139,627.572 532.307 C 616.366 545.070,615.000 545.385,615.000 535.213 C 615.000 526.219,621.571 516.105,644.835 489.294 C 661.302 470.316,674.329 462.009,687.654 461.991 C 691.419 461.986,702.600 458.039,712.500 453.221 C 733.140 443.175,746.281 441.634,749.081 448.931 M902.634 455.711 C 907.939 459.070,904.342 465.000,897.000 465.000 C 886.159 465.000,883.675 474.840,891.582 486.463 C 898.391 496.470,898.362 498.000,891.367 498.000 C 883.521 498.000,878.730 491.243,876.899 477.596 C 875.548 467.522,876.446 465.084,883.574 459.478 C 892.526 452.436,896.290 451.692,902.634 455.711 M906.000 474.000 C 906.000 475.650,904.650 477.000,903.000 477.000 C 901.350 477.000,900.000 475.650,900.000 474.000 C 900.000 472.350,901.350 471.000,903.000 471.000 C 904.650 471.000,906.000 472.350,906.000 474.000 M1217.942 477.320 C 1260.623 493.610,1290.499 507.595,1298.969 515.250 C 1303.077 518.963,1304.877 522.000,1302.968 522.000 C 1298.713 522.000,1276.504 512.630,1252.771 500.821 C 1243.020 495.970,1232.490 492.000,1229.372 492.000 C 1226.253 492.000,1220.057 490.155,1215.601 487.901 C 1211.145 485.646,1202.438 482.885,1196.250 481.765 C 1185.004 479.729,1181.681 475.839,1188.750 472.987 C 1195.757 470.159,1201.360 470.991,1217.942 477.320 M884.905 518.250 C 884.852 519.488,882.827 523.121,880.405 526.323 C 874.336 534.346,874.880 539.921,882.523 548.057 C 888.708 554.641,888.747 554.995,883.273 554.905 C 874.002 554.751,866.855 547.428,865.036 536.219 C 863.640 527.621,864.567 524.943,870.340 520.900 C 877.672 515.764,885.067 514.419,884.905 518.250 M588.935 537.750 C 589.863 543.938,589.437 549.000,587.988 549.000 C 584.154 549.000,582.940 546.062,580.552 531.000 C 578.663 519.089,578.931 518.030,582.830 522.000 C 585.260 524.475,588.007 531.563,588.935 537.750 M727.776 527.378 C 743.093 535.195,748.176 541.130,757.378 561.937 C 774.573 600.818,759.791 640.748,721.500 658.850 C 685.147 676.036,643.738 662.011,622.169 625.206 C 608.391 601.695,612.921 565.408,632.271 544.285 C 649.277 525.723,666.184 519.087,693.276 520.340 C 708.376 521.039,720.003 523.411,727.776 527.378 M1337.139 530.679 C 1382.167 548.484,1424.464 575.122,1429.231 588.677 C 1435.311 605.965,1418.211 619.745,1381.500 627.138 C 1368.450 629.767,1342.461 630.179,1287.000 628.637 C 1190.556 625.956,1178.868 620.634,1270.538 621.141 C 1355.926 621.613,1392.193 617.734,1408.500 606.388 C 1432.016 590.025,1421.294 579.528,1343.250 542.507 C 1328.813 535.658,1317.000 528.917,1317.000 527.527 C 1317.000 523.741,1321.295 524.413,1337.139 530.679 M655.579 539.320 C 635.560 550.294,627.116 565.236,627.049 589.800 C 627.007 605.398,628.323 609.926,635.960 620.468 C 659.642 653.161,703.419 652.681,726.615 619.475 C 731.326 612.730,735.730 601.603,736.698 594.000 C 738.182 582.342,737.057 578.248,728.458 564.000 C 720.509 550.828,715.172 545.855,702.000 539.346 C 681.290 529.112,674.206 529.108,655.579 539.320 M897.000 535.750 C 897.000 541.048,890.542 540.125,888.688 534.563 C 888.034 532.603,889.638 531.000,892.250 531.000 C 894.863 531.000,897.000 533.138,897.000 535.750 M1155.000 542.263 C 1155.000 543.508,1151.625 553.831,1147.500 565.203 C 1143.375 576.576,1140.000 589.590,1140.000 594.124 C 1140.000 604.324,1129.486 638.921,1121.928 653.591 C 1118.837 659.591,1113.586 670.913,1110.260 678.750 C 1106.934 686.588,1102.754 693.000,1100.971 693.000 C 1095.379 693.000,1101.111 671.940,1113.392 647.362 C 1119.889 634.362,1125.616 617.932,1126.464 609.862 C 1130.720 569.391,1133.995 558.175,1145.327 545.250 C 1150.087 539.821,1155.000 538.304,1155.000 542.263 M679.677 547.595 C 676.474 550.018,670.945 552.000,667.392 552.000 C 655.249 552.000,641.932 574.475,641.506 595.688 C 641.147 613.565,634.804 611.656,633.598 593.307 C 632.479 576.302,641.583 555.545,653.239 548.524 C 657.783 545.788,666.900 543.468,673.500 543.370 C 684.682 543.203,685.103 543.491,679.677 547.595 M586.815 585.181 C 588.866 590.856,590.646 603.228,590.772 612.673 C 590.985 628.754,590.437 630.137,582.149 634.423 C 568.328 641.570,556.539 640.168,544.958 630.000 C 531.870 618.508,527.112 618.662,521.791 630.750 C 519.431 636.113,516.150 640.500,514.500 640.500 C 509.395 640.500,509.297 621.019,514.363 613.288 C 521.140 602.945,530.413 604.185,546.653 617.604 C 568.036 635.275,583.933 631.248,580.623 609.000 C 579.764 603.225,578.177 592.585,577.096 585.355 C 574.681 569.202,581.001 569.089,586.815 585.181 M565.765 617.235 C 562.488 620.512,560.241 615.300,562.594 609.879 C 564.825 604.739,564.986 604.744,566.229 609.985 C 566.945 613.001,566.736 616.264,565.765 617.235 M870.000 616.606 C 870.000 617.489,867.782 621.596,865.072 625.732 C 862.362 629.868,859.776 637.889,859.327 643.556 C 858.877 649.222,855.847 657.603,852.592 662.179 C 849.338 666.756,843.004 681.300,838.517 694.500 C 832.815 711.274,826.934 722.113,818.985 730.500 C 812.730 737.100,804.242 749.260,800.124 757.523 C 784.838 788.190,767.201 796.730,729.506 791.716 C 689.760 786.430,672.153 783.449,668.937 781.461 C 665.617 779.409,654.319 777.352,603.000 769.456 C 502.577 754.004,403.031 755.562,316.500 773.941 C 242.418 789.676,162.000 818.144,162.000 828.634 C 162.000 829.935,160.650 831.000,159.000 831.000 C 152.391 831.000,156.663 822.099,168.331 811.558 C 182.830 798.459,194.616 793.049,213.489 790.829 C 227.075 789.231,247.117 782.268,266.440 772.431 C 271.907 769.648,284.732 766.321,294.940 765.037 C 318.711 762.048,333.866 757.874,362.322 746.480 C 384.471 737.611,386.410 737.355,418.382 739.071 C 436.597 740.048,458.925 742.134,468.000 743.705 C 477.075 745.276,501.402 746.661,522.060 746.781 C 549.796 746.943,565.255 748.561,581.162 752.969 C 597.054 757.373,607.351 758.453,620.421 757.087 C 634.357 755.631,642.187 756.636,657.106 761.799 C 672.449 767.109,679.657 767.979,694.837 766.353 C 706.679 765.085,719.034 765.736,728.324 768.117 C 736.421 770.192,746.638 770.988,751.029 769.886 C 764.176 766.587,778.732 750.131,780.989 736.018 C 782.681 725.440,785.003 722.284,796.399 715.074 C 814.998 703.308,821.200 691.173,816.549 675.649 C 814.597 669.134,813.000 661.508,813.000 658.702 C 813.000 649.618,827.484 634.104,839.258 630.577 C 845.459 628.719,852.510 624.454,854.928 621.099 C 858.813 615.710,870.000 612.374,870.000 616.606 M472.772 637.878 C 479.157 642.211,489.470 646.439,495.690 647.273 C 508.418 648.980,510.335 652.948,500.250 656.714 C 492.330 659.671,482.754 656.590,467.716 646.248 C 453.946 636.776,448.006 639.099,445.376 654.985 C 442.743 670.883,438.996 678.000,433.259 678.000 C 428.695 678.000,428.760 675.073,433.940 647.254 C 435.679 637.911,445.220 630.000,454.749 630.000 C 458.276 630.000,466.387 633.545,472.772 637.878 M393.663 661.843 C 401.890 666.097,402.397 667.040,397.832 669.594 C 394.974 671.193,390.662 671.745,388.250 670.819 C 382.605 668.653,372.000 679.213,372.000 687.000 C 372.000 690.333,370.000 693.000,367.500 693.000 C 364.264 693.000,363.000 689.691,363.000 681.218 C 363.000 672.062,364.762 668.049,370.905 663.218 C 380.416 655.736,381.703 655.658,393.663 661.843 M421.372 659.793 C 422.321 661.329,421.714 663.441,420.022 664.486 C 416.077 666.924,405.000 663.467,405.000 659.798 C 405.000 656.157,419.122 656.152,421.372 659.793 M412.500 681.000 C 411.480 682.650,409.376 684.000,407.823 684.000 C 406.270 684.000,405.000 682.650,405.000 681.000 C 405.000 679.350,407.105 678.000,409.677 678.000 C 412.249 678.000,413.520 679.350,412.500 681.000 M318.947 693.375 C 322.551 695.231,328.249 699.246,331.609 702.296 C 334.969 705.346,340.672 708.293,344.282 708.844 C 355.311 710.527,355.633 714.007,344.750 713.894 C 339.113 713.835,331.125 711.858,327.000 709.500 C 314.771 702.509,300.913 703.817,295.224 712.500 C 289.071 721.891,285.000 722.099,285.000 713.023 C 285.000 703.825,298.683 691.327,309.947 690.237 C 311.293 690.107,315.343 691.519,318.947 693.375 M272.913 728.883 C 275.340 730.418,276.546 732.454,275.593 733.407 C 273.229 735.771,264.000 732.006,264.000 728.679 C 264.000 725.260,267.304 725.335,272.913 728.883 M268.912 745.626 C 279.177 750.045,279.815 750.892,274.500 753.049 C 262.515 757.913,222.526 747.429,226.785 740.539 C 229.464 736.204,253.873 739.151,268.912 745.626 M1100.004 758.242 C 1103.596 766.840,1104.351 776.287,1103.214 798.403 C 1101.924 823.472,1100.081 831.333,1089.363 857.470 C 1082.563 874.052,1077.000 891.755,1077.000 896.810 C 1077.000 906.940,1076.267 907.424,1067.803 902.894 C 1057.729 897.503,1060.382 881.526,1075.782 854.827 C 1088.519 832.744,1089.750 828.761,1092.019 802.279 C 1093.437 785.725,1093.318 769.596,1091.737 764.083 C 1086.004 744.092,1092.248 739.681,1100.004 758.242 M512.108 770.851 C 537.192 772.311,564.867 774.904,573.608 776.613 C 601.178 782.002,643.038 789.120,655.500 790.539 C 662.100 791.291,672.900 793.166,679.500 794.706 C 694.980 798.320,736.276 806.346,750.750 808.555 C 757.807 809.632,762.000 811.898,762.000 814.636 C 762.000 820.593,739.396 820.424,715.697 814.290 C 666.903 801.659,649.642 798.386,576.000 787.803 C 532.711 781.583,458.741 779.219,415.500 782.674 C 373.748 786.010,266.403 802.604,258.727 806.909 C 255.852 808.521,241.810 813.845,227.521 818.740 C 213.233 823.635,193.184 831.859,182.968 837.016 C 166.064 845.550,156.644 847.081,163.700 840.149 C 171.370 832.614,204.411 815.207,219.000 811.016 C 228.075 808.409,236.850 805.209,238.500 803.906 C 242.517 800.733,273.871 793.037,292.500 790.652 C 300.750 789.596,324.933 785.291,346.240 781.085 C 379.180 774.584,420.612 769.909,457.500 768.533 C 462.450 768.348,487.024 769.391,512.108 770.851 M981.000 797.569 C 981.000 798.981,976.210 806.410,970.356 814.078 C 958.970 828.989,933.383 843.254,910.666 847.355 C 904.157 848.530,892.389 852.756,884.515 856.746 C 869.706 864.250,847.872 866.456,844.377 860.800 C 843.289 859.041,843.077 856.923,843.905 856.095 C 844.733 855.267,864.781 848.026,888.455 840.005 C 946.285 820.411,951.019 818.217,962.354 805.760 C 971.439 795.776,981.000 791.576,981.000 797.569 M558.000 811.160 C 558.000 813.556,553.868 815.931,548.250 816.763 C 536.435 818.513,531.000 816.753,531.000 811.179 C 531.000 808.226,534.961 807.000,544.500 807.000 C 554.009 807.000,558.000 808.230,558.000 811.160 M834.000 868.500 C 834.000 871.833,830.500 873.000,820.500 873.000 C 807.902 873.000,804.233 870.767,809.000 866.000 C 810.100 864.900,816.175 864.000,822.500 864.000 C 830.722 864.000,834.000 865.283,834.000 868.500 M824.121 889.829 C 826.055 895.689,798.238 900.985,764.157 901.246 C 740.187 901.430,730.718 900.467,729.786 897.750 C 728.859 895.047,733.388 893.936,746.000 893.772 C 755.625 893.646,768.225 891.696,774.000 889.437 C 786.272 884.637,822.501 884.921,824.121 889.829 M1059.000 913.046 C 1066.425 915.486,1084.313 921.176,1098.750 925.689 C 1113.188 930.203,1125.000 934.937,1125.000 936.209 C 1125.000 937.481,1116.435 939.440,1105.967 940.561 C 1089.943 942.277,1084.983 941.603,1074.587 936.299 C 1067.796 932.835,1058.199 930.000,1053.261 930.000 C 1041.050 930.000,1029.000 924.098,1029.000 918.118 C 1029.000 911.369,1035.547 905.386,1041.000 907.152 C 1043.475 907.953,1051.575 910.606,1059.000 913.046 M887.346 946.968 C 895.909 950.782,912.786 952.427,960.000 954.050 C 993.825 955.213,1026.225 957.742,1032.000 959.670 C 1038.711 961.911,1060.363 962.921,1092.000 962.469 C 1137.253 961.824,1143.245 962.369,1161.842 968.818 C 1183.505 976.330,1189.823 981.000,1178.323 981.000 C 1174.456 981.000,1163.861 983.612,1154.778 986.804 C 1133.402 994.317,1089.381 1000.129,1069.834 998.018 C 1061.400 997.108,1040.145 994.943,1022.600 993.208 C 984.796 989.470,951.171 981.825,901.947 965.777 C 882.079 959.300,860.123 954.000,853.157 954.000 C 837.621 954.000,831.000 951.663,831.000 946.179 C 831.000 939.915,872.827 940.501,887.346 946.968 M691.689 960.210 C 705.293 974.431,716.028 979.802,748.376 988.577 C 764.807 993.035,781.007 998.362,784.376 1000.416 C 793.194 1005.794,823.145 1015.677,847.500 1021.246 C 880.660 1028.828,912.000 1038.639,912.000 1041.437 C 912.000 1044.785,896.002 1044.492,879.000 1040.834 C 871.575 1039.236,857.122 1036.609,846.883 1034.996 C 836.644 1033.382,823.144 1030.180,816.883 1027.880 C 772.770 1011.672,761.470 1007.787,745.500 1003.340 C 721.134 996.555,694.679 982.205,683.894 969.921 C 668.116 951.951,675.265 943.043,691.689 960.210 M768.717 973.462 C 811.503 987.667,822.566 990.176,849.401 991.762 C 870.340 993.000,887.689 996.009,902.504 1000.973 C 923.418 1007.980,927.466 1008.299,984.257 1007.423 C 1025.394 1006.787,1044.006 1007.503,1044.003 1009.721 C 1044.001 1011.611,1030.064 1014.419,1010.250 1016.520 C 991.688 1018.489,963.169 1021.668,946.876 1023.585 C 917.451 1027.046,917.056 1027.006,888.376 1017.682 C 872.494 1012.518,852.075 1007.381,843.000 1006.267 C 833.925 1005.152,813.076 999.011,796.670 992.620 C 780.263 986.229,765.020 981.000,762.797 981.000 C 755.542 981.000,718.696 968.124,714.799 964.228 C 703.732 953.160,711.653 954.517,768.717 973.462 M1270.887 1035.887 C 1271.577 1036.577,1271.339 1039.232,1270.358 1041.788 C 1268.959 1045.434,1261.027 1046.898,1233.538 1048.586 C 1182.747 1051.705,1179.586 1053.570,1126.500 1111.734 C 1111.650 1128.004,1089.036 1152.235,1076.247 1165.579 C 1063.458 1178.924,1049.467 1194.490,1045.157 1200.171 C 1035.563 1212.816,1023.106 1238.908,1021.284 1250.173 C 1018.431 1267.816,1016.736 1272.000,1012.443 1272.000 C 1006.662 1272.000,1006.583 1257.009,1012.260 1237.295 C 1014.603 1229.158,1018.068 1214.761,1019.962 1205.302 C 1021.855 1195.844,1024.663 1187.326,1026.202 1186.375 C 1027.741 1185.424,1029.009 1182.363,1029.019 1179.573 C 1029.052 1171.056,1051.341 1147.868,1081.412 1125.066 C 1097.553 1112.828,1121.111 1090.812,1135.572 1074.453 C 1173.029 1032.079,1174.015 1031.633,1226.567 1033.282 C 1250.254 1034.025,1270.198 1035.198,1270.887 1035.887 M942.999 1292.732 C 934.030 1293.824,924.760 1297.097,921.001 1300.499 C 912.826 1307.897,906.000 1323.976,906.000 1335.834 C 906.000 1342.857,902.641 1348.084,891.297 1358.718 C 868.656 1379.941,861.855 1397.519,867.139 1421.156 C 870.974 1438.316,882.891 1452.000,894.000 1452.000 C 902.093 1452.000,911.275 1443.901,923.658 1425.840 C 927.545 1420.170,938.894 1411.653,951.133 1405.222 C 970.400 1395.098,972.304 1393.208,976.168 1380.382 C 978.469 1372.747,983.855 1360.425,988.139 1353.000 C 996.549 1338.422,997.724 1327.826,992.867 1310.338 C 987.536 1291.146,979.457 1288.293,942.999 1292.732 " stroke="none" fill="black" fill-rule="evenodd"/></svg>